<svg xmlns="http://www.w3.org/2000/svg" viewBox="0 0 920 470" width="920" height="470" font-family="Helvetica, Arial, sans-serif">
<rect width="920" height="470" rx="14" fill="#FFFFFF"/>
<line x1="154.0" y1="155.0" x2="326.0" y2="115.0" stroke="#CBD5E1" stroke-width="1.3"/>
<line x1="154.0" y1="155.0" x2="326.0" y2="195.0" stroke="#CBD5E1" stroke-width="1.3"/>
<line x1="154.0" y1="155.0" x2="326.0" y2="275.0" stroke="#CBD5E1" stroke-width="1.3"/>
<line x1="154.0" y1="155.0" x2="326.0" y2="355.0" stroke="#CBD5E1" stroke-width="1.3"/>
<line x1="154.0" y1="235.0" x2="326.0" y2="115.0" stroke="#CBD5E1" stroke-width="1.3"/>
<line x1="154.0" y1="235.0" x2="326.0" y2="195.0" stroke="#CBD5E1" stroke-width="1.3"/>
<line x1="154.0" y1="235.0" x2="326.0" y2="275.0" stroke="#CBD5E1" stroke-width="1.3"/>
<line x1="154.0" y1="235.0" x2="326.0" y2="355.0" stroke="#CBD5E1" stroke-width="1.3"/>
<line x1="154.0" y1="315.0" x2="326.0" y2="115.0" stroke="#CBD5E1" stroke-width="1.3"/>
<line x1="154.0" y1="315.0" x2="326.0" y2="195.0" stroke="#CBD5E1" stroke-width="1.3"/>
<line x1="154.0" y1="315.0" x2="326.0" y2="275.0" stroke="#CBD5E1" stroke-width="1.3"/>
<line x1="154.0" y1="315.0" x2="326.0" y2="355.0" stroke="#CBD5E1" stroke-width="1.3"/>
<line x1="374.0" y1="115.0" x2="546.0" y2="115.0" stroke="#CBD5E1" stroke-width="1.3"/>
<line x1="374.0" y1="115.0" x2="546.0" y2="195.0" stroke="#CBD5E1" stroke-width="1.3"/>
<line x1="374.0" y1="115.0" x2="546.0" y2="275.0" stroke="#CBD5E1" stroke-width="1.3"/>
<line x1="374.0" y1="115.0" x2="546.0" y2="355.0" stroke="#CBD5E1" stroke-width="1.3"/>
<line x1="374.0" y1="195.0" x2="546.0" y2="115.0" stroke="#CBD5E1" stroke-width="1.3"/>
<line x1="374.0" y1="195.0" x2="546.0" y2="195.0" stroke="#CBD5E1" stroke-width="1.3"/>
<line x1="374.0" y1="195.0" x2="546.0" y2="275.0" stroke="#CBD5E1" stroke-width="1.3"/>
<line x1="374.0" y1="195.0" x2="546.0" y2="355.0" stroke="#CBD5E1" stroke-width="1.3"/>
<line x1="374.0" y1="275.0" x2="546.0" y2="115.0" stroke="#CBD5E1" stroke-width="1.3"/>
<line x1="374.0" y1="275.0" x2="546.0" y2="195.0" stroke="#CBD5E1" stroke-width="1.3"/>
<line x1="374.0" y1="275.0" x2="546.0" y2="275.0" stroke="#CBD5E1" stroke-width="1.3"/>
<line x1="374.0" y1="275.0" x2="546.0" y2="355.0" stroke="#CBD5E1" stroke-width="1.3"/>
<line x1="374.0" y1="355.0" x2="546.0" y2="115.0" stroke="#CBD5E1" stroke-width="1.3"/>
<line x1="374.0" y1="355.0" x2="546.0" y2="195.0" stroke="#CBD5E1" stroke-width="1.3"/>
<line x1="374.0" y1="355.0" x2="546.0" y2="275.0" stroke="#CBD5E1" stroke-width="1.3"/>
<line x1="374.0" y1="355.0" x2="546.0" y2="355.0" stroke="#CBD5E1" stroke-width="1.3"/>
<line x1="594.0" y1="115.0" x2="766.0" y2="195.0" stroke="#CBD5E1" stroke-width="1.3"/>
<line x1="594.0" y1="115.0" x2="766.0" y2="275.0" stroke="#CBD5E1" stroke-width="1.3"/>
<line x1="594.0" y1="195.0" x2="766.0" y2="195.0" stroke="#CBD5E1" stroke-width="1.3"/>
<line x1="594.0" y1="195.0" x2="766.0" y2="275.0" stroke="#CBD5E1" stroke-width="1.3"/>
<line x1="594.0" y1="275.0" x2="766.0" y2="195.0" stroke="#CBD5E1" stroke-width="1.3"/>
<line x1="594.0" y1="275.0" x2="766.0" y2="275.0" stroke="#CBD5E1" stroke-width="1.3"/>
<line x1="594.0" y1="355.0" x2="766.0" y2="195.0" stroke="#CBD5E1" stroke-width="1.3"/>
<line x1="594.0" y1="355.0" x2="766.0" y2="275.0" stroke="#CBD5E1" stroke-width="1.3"/>
<circle cx="130.0" cy="155.0" r="24" fill="#EFF6FF" stroke="#2563EB" stroke-width="2.5"/>
<text x="130.0" y="160.0" font-size="15" fill="#2563EB" text-anchor="middle" font-weight="bold">x₁</text>
<circle cx="130.0" cy="235.0" r="24" fill="#EFF6FF" stroke="#2563EB" stroke-width="2.5"/>
<text x="130.0" y="240.0" font-size="15" fill="#2563EB" text-anchor="middle" font-weight="bold">x₂</text>
<circle cx="130.0" cy="315.0" r="24" fill="#EFF6FF" stroke="#2563EB" stroke-width="2.5"/>
<text x="130.0" y="320.0" font-size="15" fill="#2563EB" text-anchor="middle" font-weight="bold">x₃</text>
<circle cx="350.0" cy="115.0" r="24" fill="#F5F3FF" stroke="#7C3AED" stroke-width="2.5"/>
<circle cx="350.0" cy="195.0" r="24" fill="#F5F3FF" stroke="#7C3AED" stroke-width="2.5"/>
<circle cx="350.0" cy="275.0" r="24" fill="#F5F3FF" stroke="#7C3AED" stroke-width="2.5"/>
<circle cx="350.0" cy="355.0" r="24" fill="#F5F3FF" stroke="#7C3AED" stroke-width="2.5"/>
<circle cx="570.0" cy="115.0" r="24" fill="#F5F3FF" stroke="#7C3AED" stroke-width="2.5"/>
<circle cx="570.0" cy="195.0" r="24" fill="#F5F3FF" stroke="#7C3AED" stroke-width="2.5"/>
<circle cx="570.0" cy="275.0" r="24" fill="#F5F3FF" stroke="#7C3AED" stroke-width="2.5"/>
<circle cx="570.0" cy="355.0" r="24" fill="#F5F3FF" stroke="#7C3AED" stroke-width="2.5"/>
<circle cx="790.0" cy="195.0" r="24" fill="#ECFDF5" stroke="#059669" stroke-width="2.5"/>
<text x="790.0" y="200.0" font-size="15" fill="#059669" text-anchor="middle" font-weight="bold">ŷ₁</text>
<circle cx="790.0" cy="275.0" r="24" fill="#ECFDF5" stroke="#059669" stroke-width="2.5"/>
<text x="790.0" y="280.0" font-size="15" fill="#059669" text-anchor="middle" font-weight="bold">ŷ₂</text>
<text x="130.0" y="42.0" font-size="15" fill="#2563EB" text-anchor="middle" font-weight="bold">Couche d'entrée</text>
<text x="130.0" y="62.0" font-size="12" fill="#6B7280" text-anchor="middle" font-weight="normal">(les features)</text>
<text x="350.0" y="42.0" font-size="15" fill="#7C3AED" text-anchor="middle" font-weight="bold">Couche cachée 1</text>
<text x="350.0" y="62.0" font-size="12" fill="#6B7280" text-anchor="middle" font-weight="normal">(représentations)</text>
<text x="570.0" y="42.0" font-size="15" fill="#7C3AED" text-anchor="middle" font-weight="bold">Couche cachée 2</text>
<text x="570.0" y="62.0" font-size="12" fill="#6B7280" text-anchor="middle" font-weight="normal">(représentations)</text>
<text x="790.0" y="42.0" font-size="15" fill="#059669" text-anchor="middle" font-weight="bold">Couche de sortie</text>
<text x="790.0" y="62.0" font-size="12" fill="#6B7280" text-anchor="middle" font-weight="normal">(la prédiction)</text>
<path d="M330,410 L330,422 L590,422 L590,410" fill="none" stroke="#7C3AED" stroke-width="2"/>
<text x="460.0" y="448.0" font-size="13" fill="#7C3AED" text-anchor="middle" font-weight="bold">Couches cachées : leur nombre = la « profondeur » du réseau</text>
<text x="130.0" y="448.0" font-size="12" fill="#6B7280" text-anchor="middle" font-weight="normal">3 neurones</text>
<text x="790.0" y="448.0" font-size="12" fill="#6B7280" text-anchor="middle" font-weight="normal">2 neurones</text>
</svg>
